<?xml version="1.0" encoding="utf-8" ?>
<svg baseProfile="full" height="200" version="1.1" viewBox="-100.0,-100.0,200,200" width="200" xmlns="http://www.w3.org/2000/svg" xmlns:ev="http://www.w3.org/2001/xml-events" xmlns:xlink="http://www.w3.org/1999/xlink"><defs /><circle cx="82" cy="-54" r="2" /><circle cx="63" cy="-17" r="2" /><circle cx="-57" cy="51" r="2" /><circle cx="-22" cy="89" r="2" /><circle cx="85" cy="-84" r="2" /><circle cx="-50" cy="-82" r="2" /><circle cx="36" cy="59" r="2" /><circle cx="72" cy="13" r="2" /><circle cx="13" cy="9" r="2" /><circle cx="-98" cy="27" r="2" /><circle cx="-78" cy="17" r="2" /><circle cx="-43" cy="-42" r="2" /><circle cx="33" cy="-40" r="2" /><circle cx="-27" cy="97" r="2" /><circle cx="48" cy="26" r="2" /><circle cx="-87" cy="81" r="2" /><circle cx="43" cy="-80" r="2" /><circle cx="-98" cy="-13" r="2" /><circle cx="-47" cy="-42" r="2" /><circle cx="12" cy="-87" r="2" /><circle cx="-40" cy="-35" r="2" /><circle cx="5" cy="-58" r="2" /><circle cx="66" cy="-49" r="2" /><circle cx="-49" cy="7" r="2" /><circle cx="-5" cy="-81" r="2" /><circle cx="10" cy="52" r="2" /><circle cx="64" cy="34" r="2" /><circle cx="1" cy="96" r="2" /><circle cx="-17" cy="-93" r="2" /><circle cx="-53" cy="-16" r="2" /><circle cx="86" cy="-32" r="2" /><circle cx="69" cy="-66" r="2" /><circle cx="-83" cy="-35" r="2" /><circle cx="51" cy="-62" r="2" /><circle cx="62" cy="42" r="2" /><circle cx="-60" cy="68" r="2" /><circle cx="-12" cy="21" r="2" /><circle cx="69" cy="54" r="2" /><circle cx="-56" cy="7" r="2" /><circle cx="53" cy="-46" r="2" /><circle cx="88" cy="-54" r="2" /><circle cx="-17" cy="15" r="2" /><circle cx="-90" cy="-90" r="2" /><circle cx="52" cy="-36" r="2" /><circle cx="-93" cy="-84" r="2" /><circle cx="-38" cy="-86" r="2" /><circle cx="64" cy="58" r="2" /><circle cx="43" cy="89" r="2" /><circle cx="-1" cy="-39" r="2" /><circle cx="-16" cy="96" r="2" /><circle cx="99" cy="99" r="2" /><circle cx="90" cy="-5" r="2" /><circle cx="51" cy="65" r="2" /><circle cx="18" cy="-11" r="2" /><circle cx="92" cy="4" r="2" /><circle cx="-6" cy="77" r="2" /><circle cx="-45" cy="89" r="2" /><circle cx="67" cy="-31" r="2" /><circle cx="4" cy="-26" r="2" /><circle cx="97" cy="-68" r="2" /><circle cx="46" cy="-98" r="2" /><circle cx="-56" cy="-66" r="2" /><circle cx="9" cy="-27" r="2" /><circle cx="-79" cy="-12" r="2" /><circle cx="56" cy="90" r="2" /><circle cx="-28" cy="-98" r="2" /><circle cx="-7" cy="48" r="2" /><circle cx="19" cy="-11" r="2" /><circle cx="-33" cy="-47" r="2" /><circle cx="59" cy="-41" r="2" /><circle cx="64" cy="-52" r="2" /><circle cx="47" cy="-61" r="2" /><circle cx="-55" cy="6" r="2" /><circle cx="-24" cy="3" r="2" /><circle cx="-99" cy="69" r="2" /><circle cx="15" cy="-16" r="2" /><circle cx="60" cy="-59" r="2" /><circle cx="66" cy="35" r="2" /><circle cx="-44" cy="-89" r="2" /><circle cx="61" cy="-100" r="2" /><circle cx="-28" cy="-27" r="2" /><circle cx="17" cy="11" r="2" /><circle cx="96" cy="90" r="2" /><circle cx="57" cy="70" r="2" /><circle cx="-14" cy="-49" r="2" /><circle cx="-89" cy="-94" r="2" /><circle cx="69" cy="-67" r="2" /><circle cx="-67" cy="-22" r="2" /><circle cx="59" cy="23" r="2" /><circle cx="26" cy="-16" r="2" /><circle cx="-52" cy="-12" r="2" /><circle cx="100" cy="-32" r="2" /><circle cx="-55" cy="-15" r="2" /><circle cx="33" cy="79" r="2" /><circle cx="-98" cy="-3" r="2" /><circle cx="27" cy="-36" r="2" /><circle cx="65" cy="97" r="2" /><circle cx="-86" cy="58" r="2" /><circle cx="-9" cy="-13" r="2" /><circle cx="31" cy="10" r="2" /><circle cx="-22" cy="-47" r="2" /><circle cx="44" cy="47" r="2" /><circle cx="-70" cy="98" r="2" /><circle cx="99" cy="-42" r="2" /><circle cx="90" cy="28" r="2" /><circle cx="-19" cy="-65" r="2" /><circle cx="78" cy="-94" r="2" /><circle cx="45" cy="81" r="2" /><circle cx="-74" cy="48" r="2" /><circle cx="-76" cy="49" r="2" /><circle cx="99" cy="89" r="2" /><circle cx="-51" cy="99" r="2" /><circle cx="56" cy="-88" r="2" /><circle cx="78" cy="-13" r="2" /><circle cx="-11" cy="-7" r="2" /><circle cx="-8" cy="42" r="2" /><circle cx="-1" cy="-62" r="2" /><circle cx="93" cy="77" r="2" /><circle cx="-75" cy="95" r="2" /><circle cx="47" cy="-64" r="2" /><circle cx="14" cy="41" r="2" /><circle cx="60" cy="89" r="2" /><circle cx="-19" cy="-78" r="2" /><circle cx="10" cy="97" r="2" /><circle cx="44" cy="-57" r="2" /><circle cx="66" cy="-85" r="2" /><circle cx="-37" cy="54" r="2" /><circle cx="71" cy="-47" r="2" /><circle cx="-23" cy="46" r="2" /><circle cx="92" cy="42" r="2" /><circle cx="37" cy="83" r="2" /><circle cx="-42" cy="-66" r="2" /><circle cx="31" cy="20" r="2" /><circle cx="16" cy="-14" r="2" /><circle cx="43" cy="-13" r="2" /><circle cx="36" cy="71" r="2" /><circle cx="7" cy="-26" r="2" /><circle cx="47" cy="-93" r="2" /><circle cx="-68" cy="46" r="2" /><circle cx="83" cy="51" r="2" /><circle cx="41" cy="-76" r="2" /><circle cx="63" cy="4" r="2" /><circle cx="64" cy="66" r="2" /><circle cx="-18" cy="75" r="2" /><circle cx="-34" cy="-50" r="2" /><circle cx="-41" cy="62" r="2" /><circle cx="-83" cy="31" r="2" /><circle cx="83" cy="53" r="2" /><circle cx="-26" cy="92" r="2" /><circle cx="46" cy="23" r="2" /><circle cx="18" cy="-69" r="2" /><circle cx="-76" cy="-81" r="2" /><circle cx="71" cy="25" r="2" /><circle cx="57" cy="19" r="2" /><circle cx="-9" cy="50" r="2" /><circle cx="22" cy="-7" r="2" /><circle cx="22" cy="87" r="2" /><circle cx="18" cy="-11" r="2" /><circle cx="-97" cy="41" r="2" /><circle cx="-95" cy="2" r="2" /><circle cx="-30" cy="25" r="2" /><circle cx="-40" cy="0" r="2" /><circle cx="3" cy="76" r="2" /><circle cx="22" cy="-6" r="2" /><circle cx="-31" cy="93" r="2" /><circle cx="-15" cy="-20" r="2" /><circle cx="3" cy="-4" r="2" /><circle cx="0" cy="25" r="2" /><circle cx="-51" cy="-65" r="2" /><circle cx="41" cy="58" r="2" /><circle cx="-87" cy="-18" r="2" /><circle cx="-11" cy="-84" r="2" /><circle cx="43" cy="82" r="2" /><circle cx="74" cy="59" r="2" /><circle cx="-27" cy="56" r="2" /><circle cx="95" cy="-93" r="2" /><circle cx="5" cy="-49" r="2" /><circle cx="24" cy="1" r="2" /><circle cx="25" cy="8" r="2" /><circle cx="34" cy="40" r="2" /><circle cx="-59" cy="78" r="2" /><circle cx="-58" cy="88" r="2" /><circle cx="38" cy="13" r="2" /><circle cx="-10" cy="82" r="2" /><circle cx="-63" cy="-43" r="2" /><circle cx="54" cy="-15" r="2" /><circle cx="51" cy="28" r="2" /><circle cx="-57" cy="-99" r="2" /><circle cx="-90" cy="-85" r="2" /><circle cx="-4" cy="26" r="2" /><circle cx="-36" cy="99" r="2" /><circle cx="-68" cy="75" r="2" /><circle cx="-45" cy="88" r="2" /><circle cx="68" cy="50" r="2" /><circle cx="-83" cy="69" r="2" /><circle cx="16" cy="-82" r="2" /><circle cx="70" cy="78" r="2" /><circle cx="88" cy="45" r="2" /><circle cx="71" cy="-2" r="2" /><circle cx="29" cy="-72" r="2" /><rect fill="none" height="40" stroke="red" width="40" x="-37" y="-78" /></svg>