<?xml version="1.0" encoding="utf-8" ?>
<svg baseProfile="full" height="200" version="1.1" viewBox="-100.0,-100.0,200,200" width="200" xmlns="http://www.w3.org/2000/svg" xmlns:ev="http://www.w3.org/2001/xml-events" xmlns:xlink="http://www.w3.org/1999/xlink"><defs /><g transform="scale(1,-1)"><rect fill="none" height="40" stroke="red" width="40" x="-18" y="-4" /><line stroke="black" x1="93" x2="75" y1="-14" y2="-14" /><line stroke="black" x1="-47" x2="-1" y1="25" y2="25" /><line stroke="black" x1="-39" x2="-48" y1="-73" y2="-73" /><line stroke="black" x1="-24" x2="92" y1="26" y2="26" /><line stroke="black" x1="-73" x2="58" y1="21" y2="21" /><line stroke="black" x1="14" x2="-81" y1="-18" y2="-18" /><line stroke="black" x1="59" x2="-28" y1="30" y2="30" /><line stroke="black" x1="-75" x2="10" y1="60" y2="60" /><line stroke="black" x1="-15" x2="79" y1="87" y2="87" /><line stroke="black" x1="89" x2="29" y1="-48" y2="-48" /><line stroke="black" x1="-14" x2="-41" y1="-67" y2="-67" /><line stroke="black" x1="85" x2="14" y1="-27" y2="-27" /><line stroke="black" x1="39" x2="-6" y1="-69" y2="-69" /><line stroke="black" x1="-51" x2="-49" y1="-86" y2="-86" /><line stroke="black" x1="88" x2="18" y1="53" y2="53" /><line stroke="black" x1="46" x2="-79" y1="-36" y2="-36" /><line stroke="black" x1="48" x2="92" y1="-87" y2="-87" /><line stroke="black" x1="-28" x2="-58" y1="-99" y2="-99" /><line stroke="black" x1="-43" x2="-92" y1="-92" y2="-92" /><line stroke="black" x1="-24" x2="-49" y1="-93" y2="-93" /><line stroke="black" x1="84" x2="-79" y1="89" y2="89" /><line stroke="black" x1="96" x2="-67" y1="62" y2="62" /><line stroke="black" x1="-24" x2="-4" y1="35" y2="35" /><line stroke="black" x1="18" x2="-3" y1="17" y2="17" /><line stroke="black" x1="-8" x2="-50" y1="89" y2="89" /><line stroke="black" x1="-88" x2="-46" y1="-88" y2="-88" /><line stroke="black" x1="81" x2="65" y1="-27" y2="-27" /><line stroke="black" x1="-14" x2="66" y1="-34" y2="-34" /><line stroke="black" x1="21" x2="62" y1="57" y2="57" /><line stroke="black" x1="-4" x2="-31" y1="97" y2="97" /></g></svg>