<?xml version="1.0" encoding="utf-8" ?>
<svg baseProfile="full" height="200" version="1.1" viewBox="-100.0,-100.0,200,200" width="200" xmlns="http://www.w3.org/2000/svg" xmlns:ev="http://www.w3.org/2001/xml-events" xmlns:xlink="http://www.w3.org/1999/xlink"><defs /><g transform="scale(1,-1)"><rect fill="none" height="40" stroke="red" width="40" x="-62" y="-93" /><line stroke="black" x1="10" x2="-75" y1="-63" y2="-63" /><line stroke="black" x1="-56" x2="40" y1="-60" y2="-60" /><line stroke="black" x1="73" x2="38" y1="-64" y2="-64" /><line stroke="black" x1="71" x2="-6" y1="2" y2="2" /><line stroke="black" x1="82" x2="90" y1="-96" y2="-96" /><line stroke="black" x1="72" x2="-48" y1="90" y2="90" /><line stroke="black" x1="44" x2="-30" y1="46" y2="46" /><line stroke="black" x1="99" x2="78" y1="70" y2="70" /><line stroke="black" x1="-33" x2="-62" y1="-65" y2="-65" /><line stroke="black" x1="-83" x2="-67" y1="98" y2="98" /><line stroke="black" x1="21" x2="-48" y1="-77" y2="-77" /><line stroke="black" x1="-60" x2="70" y1="75" y2="75" /><line stroke="black" x1="-98" x2="-8" y1="68" y2="68" /><line stroke="black" x1="57" x2="77" y1="-36" y2="-36" /><line stroke="black" x1="15" x2="0" y1="1" y2="1" /><line stroke="black" x1="65" x2="31" y1="-95" y2="-95" /><line stroke="black" x1="-71" x2="-36" y1="-44" y2="-44" /><line stroke="black" x1="-32" x2="-76" y1="79" y2="79" /><line stroke="black" x1="80" x2="-28" y1="71" y2="71" /><line stroke="black" x1="58" x2="-51" y1="30" y2="30" /><line stroke="black" x1="27" x2="41" y1="56" y2="56" /><line stroke="black" x1="-69" x2="-44" y1="70" y2="70" /><line stroke="black" x1="45" x2="9" y1="33" y2="33" /><line stroke="black" x1="-70" x2="88" y1="17" y2="17" /><line stroke="black" x1="-74" x2="72" y1="40" y2="40" /><line stroke="black" x1="36" x2="-61" y1="-60" y2="-60" /><line stroke="black" x1="-84" x2="-19" y1="-98" y2="-98" /><line stroke="black" x1="26" x2="-18" y1="-28" y2="-28" /><line stroke="black" x1="92" x2="-51" y1="-32" y2="-32" /><line stroke="black" x1="-79" x2="-44" y1="70" y2="70" /></g></svg>